<svg xmlns="http://www.w3.org/2000/svg" width="290" height="290" fill="none" viewBox="0 0 290 290">
  <path fill="url(#a)" stroke="url(#b)" stroke-width="1.5" d="m98.713 121.02.001-.002c3.227-7.64 7.583-14.215 13.066-19.734 5.484-5.521 11.971-9.906 19.469-13.154 7.576-3.243 15.498-4.865 23.772-4.865 10.367 0 19.984 2.455 28.863 7.362l.005.003c8.3 4.506 15.151 10.537 20.56 18.099.388.542.247 1.312-.334 1.699l-4.474 2.977c-.567.378-1.356.235-1.778-.346-4.666-6.423-10.587-11.544-17.755-15.36-7.695-4.233-16.062-6.348-25.087-6.348-14.659 0-27.194 5.228-37.561 15.666-10.367 10.436-15.558 23.053-15.558 37.807 0 14.753 5.191 27.37 15.558 37.807 10.367 10.437 22.902 15.665 37.561 15.665 9.027 0 17.395-2.116 25.092-6.35 7.139-3.884 13.042-9.024 17.699-15.419.436-.599 1.257-.729 1.825-.316l4.429 3.23c.549.4.668 1.148.288 1.675-5.414 7.507-12.277 13.518-20.597 18.034-8.881 4.821-18.455 7.232-28.736 7.232-8.274 0-16.197-1.622-23.773-4.866-7.498-3.248-13.985-7.632-19.468-13.153-5.484-5.52-9.84-12.051-13.066-19.601-3.223-7.629-4.834-15.606-4.834-23.938 0-8.333 1.611-16.265 4.833-23.804Zm-6.23-12.655-.003.004c-6.415 11.123-9.622 23.279-9.622 36.455 0 13.175 3.207 25.331 9.622 36.454l.003.004c6.5 11.116 15.275 19.95 26.317 26.495l.004.002c11.05 6.46 23.127 9.689 36.217 9.689 12.202 0 23.566-2.871 34.082-8.613 9.894-5.402 18.057-12.598 24.481-21.583.419-.586 1.22-.725 1.788-.327l4.526 3.166c.562.394.695 1.154.311 1.696-7.178 10.148-16.328 18.231-27.458 24.251l-.002.001c-11.613 6.329-24.185 9.495-37.728 9.495-14.504 0-27.906-3.605-40.22-10.815-12.319-7.212-22.056-17.015-29.22-29.417-7.163-12.399-10.744-25.894-10.744-40.498 0-14.605 3.581-28.1 10.743-40.498 7.165-12.403 16.902-22.206 29.221-29.418 12.314-7.21 25.716-10.814 40.22-10.814 13.543 0 26.115 3.165 37.728 9.494l.002.001c11.111 6.01 20.25 14.076 27.423 24.201a1.213 1.213 0 0 1-.343 1.716l-4.596 3.008c-.566.37-1.34.225-1.751-.345-6.429-8.923-14.604-16.05-24.515-21.378-10.427-5.742-21.748-8.612-33.948-8.612-13.091 0-25.169 3.275-36.219 9.823-11.044 6.456-19.82 15.247-26.32 26.363Zm-2.136 101.556.006.006c8.182 8.148 17.917 14.635 29.196 19.462 11.29 4.834 23.116 7.25 35.472 7.25 15.463 0 29.826-3.624 43.075-10.876 12.613-6.903 23.014-16.123 31.195-27.658a1.284 1.284 0 0 1 1.811-.303l4.458 3.328c.539.402.658 1.148.28 1.683-8.945 12.656-20.351 22.75-34.228 30.287-14.347 7.749-29.873 11.625-46.591 11.625-17.942 0-34.518-4.447-49.741-13.343-15.229-8.988-27.303-21.143-36.231-36.476-8.837-15.327-13.256-32.016-13.256-50.082 0-18.067 4.42-34.756 13.256-50.084 8.928-15.332 21.002-27.442 36.229-36.34l.003-.002c15.223-8.985 31.798-13.476 49.74-13.476 16.804 0 32.417 3.963 46.851 11.89l.003.001c13.845 7.519 25.231 17.624 34.167 30.321a1.221 1.221 0 0 1-.344 1.723l-4.589 3.003a1.284 1.284 0 0 1-1.746-.347c-8.196-11.58-18.666-20.792-31.401-27.63-13.249-7.25-27.566-10.875-42.941-10.875-12.356 0-24.182 2.416-35.472 7.25-11.281 4.828-21.016 11.36-29.2 19.599-8.095 8.15-14.538 17.906-19.334 29.26-4.8 11.366-7.2 23.27-7.2 35.707 0 12.436 2.4 24.34 7.2 35.706 4.796 11.353 11.238 21.153 19.332 29.391Zm-36.92-108.128v.002c-5.77 13.673-8.655 28.018-8.655 43.029 0 15.01 2.885 29.399 8.654 43.16l.002.005c5.854 13.661 13.708 25.458 23.565 35.382 9.857 9.923 21.575 17.831 35.146 23.724l.006.003c13.67 5.808 27.964 8.713 42.876 8.713 18.55 0 35.865-4.38 51.935-13.139 15.426-8.409 28.117-19.666 38.062-33.767a1.28 1.28 0 0 1 1.818-.292l4.48 3.421c.53.406.644 1.149.267 1.682-10.707 15.149-24.364 27.245-40.978 36.292-17.169 9.259-35.693 13.889-55.584 13.889-16.032 0-31.359-3.174-45.987-9.524l-.002-.001c-14.553-6.266-27.123-14.69-37.72-25.269-10.508-10.668-18.92-23.324-25.233-37.976-6.22-14.728-9.329-30.161-9.329-46.303 0-16.143 3.11-31.531 9.329-46.17 6.313-14.742 14.726-27.398 25.234-37.977C81.909 50.009 94.48 41.54 109.032 35.275l.002-.001c14.628-6.35 29.955-9.524 45.987-9.524 19.979 0 38.546 4.674 55.714 14.021 16.578 9.027 30.212 21.172 40.91 36.442a1.225 1.225 0 0 1-.344 1.728l-4.588 3.002a1.278 1.278 0 0 1-1.741-.345c-9.959-14.156-22.679-25.41-38.151-33.758-15.981-8.67-33.252-13.004-51.8-13.004-14.913 0-29.208 2.95-42.879 8.848-13.572 5.805-25.291 13.668-35.149 23.593-9.858 9.924-17.712 21.766-23.565 35.516Z"/>
  <g filter="url(#c)">
    <path fill="url(#d)" d="M97.821 273.632c-3.718 6.459-13.038 6.459-16.756 0L7.303 145.489C3.593 139.044 8.245 131 15.681 131h147.524c7.436 0 12.087 8.044 8.378 14.489L97.821 273.632Z"/>
    <path fill="url(#e)" fill-opacity=".5" d="M97.821 273.632c-3.718 6.459-13.038 6.459-16.756 0L7.303 145.489C3.593 139.044 8.245 131 15.681 131h147.524c7.436 0 12.087 8.044 8.378 14.489L97.821 273.632Z"/>
    <path fill="url(#f)" fill-opacity=".5" stroke="url(#g)" stroke-linejoin="round" stroke-width="1.5" d="M81.903 273.149 8.141 145.006c-3.339-5.8.848-13.04 7.54-13.04h147.524c6.692 0 10.879 7.24 7.54 13.04L96.983 273.149c-3.346 5.813-11.734 5.813-15.08 0Z"/>
  </g>
  <defs>
    <radialGradient id="d" cx="0" cy="0" r="1" gradientTransform="rotate(147.111 63.208 93.396) scale(178.631 178.095)" gradientUnits="userSpaceOnUse">
      <stop stop-color="#00C58A"/>
      <stop offset="1" stop-color="#fff" stop-opacity=".21"/>
    </radialGradient>
    <radialGradient id="e" cx="0" cy="0" r="1" gradientTransform="matrix(0 191.4 -190.827 0 89.365 186.871)" gradientUnits="userSpaceOnUse">
      <stop stop-color="#fff" stop-opacity="0"/>
      <stop offset="1" stop-color="#fff"/>
    </radialGradient>
    <radialGradient id="f" cx="0" cy="0" r="1" gradientTransform="matrix(0 -129.533 129.145 0 89.365 208.137)" gradientUnits="userSpaceOnUse">
      <stop stop-color="#fff" stop-opacity="0"/>
      <stop offset="1" stop-color="#fff"/>
    </radialGradient>
    <linearGradient id="a" x1="228" x2="60.5" y1="265" y2="25" gradientUnits="userSpaceOnUse">
      <stop stop-color="#00996C"/>
      <stop offset="1" stop-color="#7AFFD8"/>
    </linearGradient>
    <linearGradient id="b" x1="100" x2="171" y1="292.5" y2="25" gradientUnits="userSpaceOnUse">
      <stop stop-color="#fff" stop-opacity=".56"/>
      <stop offset=".49" stop-color="#fff" stop-opacity="0"/>
      <stop offset="1" stop-color="#fff"/>
    </linearGradient>
    <linearGradient id="g" x1="86.465" x2="86.465" y1="131.771" y2="287.404" gradientUnits="userSpaceOnUse">
      <stop stop-color="#fff" stop-opacity=".6"/>
      <stop offset=".495" stop-color="#fff" stop-opacity="0"/>
      <stop offset="1" stop-color="#fff" stop-opacity=".38"/>
    </linearGradient>
    <filter id="c" width="193.486" height="174.076" x="-7.3" y="117.7" color-interpolation-filters="sRGB" filterUnits="userSpaceOnUse">
      <feFlood flood-opacity="0" result="BackgroundImageFix"/>
      <feGaussianBlur in="BackgroundImageFix" stdDeviation="6.65"/>
      <feComposite in2="SourceAlpha" operator="in" result="effect1_backgroundBlur_29_1052"/>
      <feBlend in="SourceGraphic" in2="effect1_backgroundBlur_29_1052" result="shape"/>
    </filter>
  </defs>
</svg>
